<svg width="20" height="21" viewBox="0 0 20 21" fill="none" xmlns="http://www.w3.org/2000/svg">
<path fill-rule="evenodd" clip-rule="evenodd" d="M10.1006 1.44685C7.66686 1.44685 5.46233 2.43237 3.87088 4.02381C2.27514 5.61526 1.29391 7.82123 1.29391 10.2578C1.29391 11.0786 1.40708 11.8765 1.61192 12.6213C1.82535 13.3949 2.14908 14.1311 2.55447 14.8087C2.63182 14.9347 2.63898 15.0823 2.59457 15.2112L1.218 19.2994L5.46949 17.9371C5.60701 17.8927 5.74739 17.9128 5.86055 17.9844C6.49799 18.3354 7.18269 18.609 7.89462 18.7938C8.59079 18.9742 9.33279 19.0716 10.102 19.0716C12.5357 19.0716 14.7403 18.0861 16.3317 16.4947C17.926 14.9032 18.9087 12.6973 18.9087 10.265C18.9087 7.83268 17.9217 5.62672 16.3317 4.03098C14.736 2.43523 12.5343 1.44971 10.102 1.44971L10.1006 1.44685ZM3.20193 3.35916C4.971 1.59152 7.41045 0.5 10.1006 0.5C12.795 0.5 15.2359 1.59582 16.9992 3.35916C18.7683 5.1268 19.8584 7.56768 19.8584 10.2578C19.8584 12.9451 18.7712 15.3802 17.0064 17.1436L16.9978 17.1522C15.2302 18.9198 12.7893 20.0113 10.0992 20.0113C9.26117 20.0113 8.44325 19.9025 7.66256 19.7005C6.92485 19.5114 6.22009 19.2364 5.56403 18.8912L0.614936 20.4769C0.521827 20.5055 0.417259 20.5098 0.321285 20.4769C0.0763372 20.3924 -0.0568807 20.1259 0.0233362 19.881L1.63054 15.1052C1.23232 14.4119 0.918614 13.6599 0.696585 12.8692C0.463096 12.0355 0.338474 11.1531 0.338474 10.2549C0.338474 7.56911 1.4257 5.13253 3.19047 3.36489L3.19763 3.35629L3.20193 3.35916Z" fill="#282828"/>
<path fill-rule="evenodd" clip-rule="evenodd" d="M7.33745 5.56114C7.15319 5.11966 7.01454 5.10506 6.7336 5.08864C6.63508 5.08317 6.52927 5.0777 6.41434 5.0777C6.04948 5.0777 5.67002 5.18533 5.44563 5.41702C5.16833 5.69797 4.47144 6.36567 4.47144 7.73574C4.47144 9.10033 5.46569 10.423 5.60434 10.6072C5.74299 10.7915 7.54725 13.6392 10.3494 14.8032C12.5386 15.7098 13.1862 15.6278 13.6879 15.5219C14.4103 15.3632 15.3298 14.8287 15.5542 14.1774C15.7841 13.5316 15.7841 12.9734 15.7184 12.8584C15.6509 12.7453 15.4666 12.6742 15.1857 12.5355C14.9084 12.3987 13.5438 11.7237 13.2884 11.6325C13.033 11.5394 12.7958 11.5723 12.6006 11.8368C12.3288 12.2108 12.0734 12.5957 11.8526 12.8274C11.683 13.0062 11.4112 13.0317 11.1813 12.9351C10.873 12.8019 10.0064 12.499 8.94467 11.5559C8.12008 10.8225 7.56001 9.91033 7.4013 9.63303C7.24258 9.35574 7.3867 9.18607 7.5144 9.0383C7.65853 8.86317 7.78623 8.74094 7.92305 8.57675C8.0617 8.41256 8.13832 8.32499 8.23136 8.14256C8.3244 7.9583 8.26238 7.76857 8.18941 7.62445C8.11826 7.4858 7.56366 6.12303 7.3338 5.56297L7.33745 5.56114Z" fill="#282828"/>
</svg>
