<svg width="140" height="42" viewBox="0 0 140 42" fill="none" xmlns="http://www.w3.org/2000/svg">
<path fill-rule="evenodd" clip-rule="evenodd" d="M10.1094 23.3655H17.1327L25.7544 14.7021H10.1094V23.3655Z" fill="#00A0E3"/>
<path d="M10.8671 22.6048H16.8203L23.9284 15.4623H10.8671V22.6048ZM17.1336 24.1257H9.35352V13.9414H27.5821L17.4469 24.1257H17.1336Z" fill="#00A0E3"/>
<path d="M10.1097 11.1311H9.35305V9.61017H29.7521L37.5916 1.73281H1.51358V37.985L10.0781 29.3793L11.1481 30.4544L0 41.6565V0.211914H41.2454L30.3788 11.1311H10.1097Z" fill="#282828"/>
<path d="M57.0761 5.53044V10.6301H67.2592V15.6965H57.0761V23.6441H50.5508V0.463867H68.6434V5.53044H57.0761Z" fill="#00A0E3"/>
<path d="M86.4569 19.1406H76.7019L74.8895 23.6441H68.2324L78.4157 0.463867H84.8421L95.0583 23.6441H88.2695L86.457 19.1406H86.4569ZM84.5454 14.3058L81.5794 6.88809L78.6134 14.3058H84.5454Z" fill="#00A0E3"/>
<path d="M106.85 24.1079C104.982 24.1079 103.17 23.8759 101.412 23.4124C99.6546 22.9487 98.2265 22.3307 97.1279 21.5579L99.27 16.7233C100.303 17.4077 101.5 17.9596 102.862 18.3789C104.224 18.7984 105.564 19.0082 106.883 19.0082C109.387 19.0082 110.64 18.3789 110.64 17.1206C110.64 16.4582 110.283 15.9672 109.569 15.647C108.854 15.3268 107.707 14.9902 106.125 14.6369C104.389 14.2616 102.939 13.8587 101.775 13.4281C100.61 12.9977 99.6108 12.3078 98.7758 11.3586C97.941 10.4091 97.5235 9.1288 97.5235 7.51719C97.5235 6.10424 97.908 4.82946 98.6771 3.69228C99.446 2.55549 100.594 1.65581 102.121 0.99345C103.648 0.331086 105.521 0 107.74 0C109.256 0 110.75 0.171093 112.222 0.513279C113.694 0.855466 114.99 1.35784 116.111 2.02001L114.1 6.88774C111.903 5.69583 109.772 5.09949 107.707 5.09949C106.411 5.09949 105.466 5.2926 104.873 5.67918C104.279 6.06558 103.983 6.56776 103.983 7.18572C103.983 7.80388 104.334 8.2674 105.037 8.57647C105.74 8.88555 106.872 9.20554 108.432 9.53662C110.189 9.91192 111.645 10.315 112.798 10.7454C113.952 11.176 114.951 11.8602 115.797 12.7985C116.643 13.7366 117.066 15.0116 117.066 16.6232C117.066 18.014 116.682 19.2725 115.913 20.3984C115.144 21.5242 113.99 22.4237 112.452 23.0972C110.914 23.7707 109.047 24.1073 106.85 24.1073V24.1079Z" fill="#00A0E3"/>
<path d="M126.422 5.66269H119.337V0.463867H140V5.66269H132.947V23.6441H126.422V5.66269Z" fill="#00A0E3"/>
<path d="M55.4959 29.1132C57.1382 29.1132 58.4303 29.5075 59.3723 30.2963C60.3141 31.085 60.7851 32.1713 60.7851 33.5544C60.7851 34.9379 60.3141 36.0237 59.3723 36.8124C58.4303 37.6011 57.1382 37.9955 55.4959 37.9955H52.362V41.8543H50.5508V29.1132H55.496H55.4959ZM55.4416 36.412C56.5887 36.412 57.4642 36.1663 58.068 35.6749C58.6719 35.1834 58.9738 34.4766 58.9738 33.5544C58.9738 32.6321 58.6719 31.9253 58.068 31.4339C57.4642 30.9424 56.5887 30.6969 55.4416 30.6969H52.362V36.4122H55.4416V36.412ZM71.9254 41.8543L69.1902 37.941C68.852 37.9653 68.5863 37.9775 68.3932 37.9775H65.2593V41.8545H63.4481V29.1134H68.3933C70.0357 29.1134 71.3277 29.5077 72.2698 30.2965C73.2116 31.0852 73.6826 32.1715 73.6826 33.5546C73.6826 34.5375 73.4409 35.3746 72.9579 36.0664C72.4749 36.7581 71.7866 37.2616 70.8927 37.577L73.8999 41.8545H71.9254V41.8543ZM68.3389 36.4302C69.486 36.4302 70.3615 36.1814 70.9653 35.6839C71.5692 35.1863 71.8711 34.4764 71.8711 33.5542C71.8711 32.6319 71.5692 31.9252 70.9653 31.4337C70.3615 30.9422 69.486 30.6967 68.3389 30.6967H65.2593V36.4302H68.3389ZM82.341 41.9999C81.061 41.9999 79.9075 41.7179 78.8811 41.1537C77.8546 40.5895 77.0486 39.8098 76.4629 38.8148C75.8774 37.8198 75.5845 36.7095 75.5845 35.4839C75.5845 34.2583 75.8774 33.1481 76.4629 32.1529C77.0486 31.1579 77.8546 30.3782 78.8811 29.8141C79.9075 29.2499 81.061 28.9678 82.341 28.9678C83.6091 28.9678 84.7562 29.2499 85.7826 29.8141C86.809 30.3782 87.6122 31.1549 88.1919 32.1439C88.7717 33.1328 89.0614 34.2462 89.0614 35.4839C89.0614 36.7215 88.7717 37.835 88.1919 38.8238C87.6122 39.8127 86.809 40.5893 85.7826 41.1537C84.7562 41.7179 83.6089 41.9999 82.341 41.9999ZM82.341 40.3801C83.2708 40.3801 84.1071 40.1677 84.8497 39.743C85.5925 39.3183 86.178 38.7327 86.6067 37.9865C87.0355 37.2401 87.2497 36.4059 87.2497 35.4837C87.2497 34.5614 87.0355 33.7272 86.6067 32.9808C86.178 32.2346 85.5925 31.649 84.8497 31.2243C84.1071 30.7997 83.2708 30.5872 82.341 30.5872C81.4112 30.5872 80.5688 30.7997 79.8142 31.2243C79.0592 31.649 78.4677 32.2346 78.0389 32.9808C77.6102 33.7272 77.396 34.5614 77.396 35.4837C77.396 36.4059 77.6102 37.2401 78.0389 37.9865C78.4677 38.7327 79.0592 39.3183 79.8142 39.743C80.569 40.1677 81.4112 40.3801 82.341 40.3801ZM110.327 40.2708V41.8545H101.125V29.1134H110.074V30.6971H102.937V34.6102H109.295V36.1573H102.937V40.2708H110.327ZM118.877 42.0001C117.609 42.0001 116.465 41.718 115.444 41.1539C114.424 40.5897 113.624 39.8131 113.044 38.824C112.465 37.8351 112.175 36.7215 112.175 35.484C112.175 34.2462 112.465 33.133 113.044 32.1441C113.624 31.1552 114.427 30.3786 115.454 29.8142C116.48 29.2501 117.627 28.968 118.895 28.968C119.885 28.968 120.791 29.1348 121.612 29.4686C122.434 29.8022 123.134 30.2967 123.714 30.952L122.536 32.0987C121.582 31.0915 120.393 30.588 118.968 30.588C118.026 30.588 117.174 30.8004 116.414 31.2251C115.653 31.6498 115.058 32.2354 114.63 32.9816C114.201 33.728 113.987 34.5622 113.987 35.4844C113.987 36.4067 114.201 37.2409 114.63 37.9873C115.058 38.7335 115.653 39.3191 116.414 39.7438C117.174 40.1684 118.026 40.3809 118.968 40.3809C120.38 40.3809 121.57 39.8712 122.536 38.8518L123.714 39.9985C123.134 40.6538 122.431 41.1514 121.603 41.4911C120.776 41.8308 119.868 42.0007 118.877 42.0007V42.0001ZM128.677 30.6969H124.329V29.1132H134.817V30.6969H130.47V41.8545H128.677V30.6969H128.677ZM93.8253 42.0001C93.0646 42.0001 92.358 41.8394 91.7059 41.5179C91.0538 41.1961 90.5285 40.7443 90.1298 40.1617L91.1804 38.9239C91.8807 39.9311 92.7625 40.4347 93.8251 40.4347C94.5376 40.4347 95.078 40.2163 95.4463 39.7794C95.8147 39.3424 95.9988 38.6996 95.9988 37.8501V30.6969H91.416V29.1132H97.7922V37.759C97.7922 39.1666 97.457 40.2253 96.7868 40.9351C96.1165 41.6449 95.1292 41.9999 93.8251 41.9999L93.8253 42.0001Z" fill="#282828"/>
<path d="M6.55606 1.16211V3.38881H5.04248V1.16211H6.55606ZM28.1082 1.16211V4.51814H26.5946V1.16211H28.1082ZM19.4873 1.16211V4.51814H17.9737V1.16211H19.4873ZM10.8663 1.16211V4.51814H9.35275V1.16211H10.8663ZM32.419 1.16211V3.38881H30.9055V1.16211H32.419ZM23.7975 1.16211V3.38881H22.284V1.16211H23.7975ZM15.1766 1.16211V3.38881H13.663V1.16211H15.1766Z" fill="#282828"/>
<path d="M0.945801 31.2665H3.16179V32.7874H0.945801V31.2665ZM0.945801 5.27832H3.16179V6.79921H0.945801V5.27832ZM0.945801 9.61019H4.28569V11.1311H0.945801V9.61019ZM0.945801 18.2728H4.28569V19.7937H0.945801V18.2728ZM0.945801 26.9354H4.28569V28.4563H0.945801V26.9354ZM0.945801 13.9415H3.16179V15.4624H0.945801V13.9415ZM0.945801 22.6041H3.16179V24.125H0.945801V22.6041Z" fill="#282828"/>
</svg>
