<svg width="100" height="30" viewBox="0 0 100 30" fill="none" xmlns="http://www.w3.org/2000/svg">
<path fill-rule="evenodd" clip-rule="evenodd" d="M7.22266 16.6891H12.2393L18.3977 10.501H7.22266V16.6891Z" fill="#00A0E3"/>
<path d="M7.76277 16.1459H12.015L17.0923 11.0441H7.76277V16.1459ZM12.2388 17.2322H6.68164V9.95776H19.7021L12.4626 17.2322H12.2388Z" fill="#00A0E3"/>
<path d="M7.22125 7.95033H6.68075V6.86398H21.2515L26.8512 1.23729H1.08113V27.1317L7.19866 20.9848L7.96295 21.7527L0 29.7542V0.15094H29.461L21.6991 7.95033H7.22125Z" fill="#333333"/>
<path d="M40.7684 3.95022V7.59285H48.042V11.2117H40.7684V16.8886H36.1074V0.331238H49.0307V3.95022H40.7684Z" fill="#00A0E3"/>
<path d="M61.7557 13.6717H54.7879L53.4934 16.8886H48.7383L56.012 0.331238H60.6024L67.8997 16.8886H63.0504L61.7559 13.6717H61.7557ZM60.3904 10.2183L58.2718 4.91997L56.1532 10.2183H60.3904Z" fill="#00A0E3"/>
<path d="M76.3211 17.2198C74.9871 17.2198 73.6925 17.0541 72.4371 16.723C71.1817 16.3918 70.1616 15.9504 69.377 15.3984L70.907 11.9451C71.6446 12.434 72.4999 12.8282 73.4728 13.1277C74.4457 13.4274 75.4031 13.5772 76.3446 13.5772C78.1336 13.5772 79.0282 13.1277 79.0282 12.2289C79.0282 11.7558 78.7732 11.405 78.2632 11.1763C77.7531 10.9476 76.9331 10.7072 75.8033 10.4548C74.5636 10.1868 73.5279 9.89901 72.6961 9.59143C71.8645 9.284 71.1504 8.79119 70.554 8.11316C69.9577 7.435 69.6595 6.52048 69.6595 5.36933C69.6595 4.36008 69.9342 3.44952 70.4835 2.63725C71.0327 1.82526 71.8528 1.18263 72.9433 0.709516C74.0339 0.236399 75.3719 -9.15527e-05 76.9568 -9.15527e-05C78.0397 -9.15527e-05 79.1067 0.122118 80.1583 0.366537C81.2096 0.610955 82.1355 0.969792 82.936 1.44277L81.4999 4.91973C79.9307 4.06836 78.4085 3.6424 76.9333 3.6424C76.0074 3.6424 75.3326 3.78033 74.9088 4.05647C74.4852 4.33246 74.2732 4.69116 74.2732 5.13257C74.2732 5.57411 74.5244 5.90519 75.0265 6.12596C75.5286 6.34673 76.3369 6.57529 77.451 6.81178C78.7064 7.07985 79.7461 7.36774 80.5701 7.67518C81.394 7.98275 82.108 8.47145 82.7122 9.14169C83.3164 9.81179 83.6185 10.7225 83.6185 11.8736C83.6185 12.867 83.3438 13.766 82.7946 14.5702C82.2453 15.3744 81.4214 16.0169 80.3229 16.4979C79.2244 16.9789 77.8905 17.2194 76.3211 17.2194V17.2198Z" fill="#00A0E3"/>
<path d="M90.3013 4.04468H85.2402V0.331238H99.9996V4.04468H94.9621V16.8886H90.3013V4.04468Z" fill="#00A0E3"/>
<path d="M39.6416 20.7952C40.8147 20.7952 41.7376 21.0768 42.4104 21.6403C43.0832 22.2036 43.4196 22.9795 43.4196 23.9674C43.4196 24.9556 43.0832 25.7313 42.4104 26.2946C41.7376 26.8579 40.8147 27.1397 39.6416 27.1397H37.4031V29.8959H36.1094V20.7952H39.6417H39.6416ZM39.6028 26.0086C40.4222 26.0086 41.0476 25.8331 41.4788 25.4821C41.9102 25.131 42.1258 24.6262 42.1258 23.9674C42.1258 23.3087 41.9102 22.8038 41.4788 22.4528C41.0476 22.1017 40.4222 21.9264 39.6028 21.9264H37.4031V26.0088H39.6028V26.0086ZM51.377 29.8959L49.4233 27.1007C49.1817 27.1181 48.9919 27.1268 48.8539 27.1268H46.6155V29.8961H45.3217V20.7953H48.8541C50.0272 20.7953 50.9501 21.0769 51.6229 21.6404C52.2957 22.2037 52.6321 22.9796 52.6321 23.9676C52.6321 24.6697 52.4594 25.2676 52.1144 25.7617C51.7694 26.2558 51.2778 26.6154 50.6393 26.8407L52.7873 29.8961H51.377V29.8959ZM48.8152 26.0216C49.6345 26.0216 50.2599 25.8439 50.6912 25.4885C51.1226 25.1331 51.3382 24.626 51.3382 23.9673C51.3382 23.3085 51.1226 22.8037 50.6912 22.4527C50.2599 22.1016 49.6345 21.9262 48.8152 21.9262H46.6155V26.0216H48.8152ZM58.8167 30C57.9024 30 57.0785 29.7985 56.3454 29.3955C55.6121 28.9925 55.0364 28.4356 54.618 27.7249C54.1998 27.0142 53.9906 26.2211 53.9906 25.3456C53.9906 24.4702 54.1998 23.6772 54.618 22.9664C55.0364 22.2557 55.6121 21.6988 56.3454 21.2958C57.0785 20.8928 57.9024 20.6913 58.8167 20.6913C59.7225 20.6913 60.5418 20.8928 61.275 21.2958C62.0081 21.6988 62.5818 22.2535 62.9959 22.9599C63.41 23.6663 63.6169 24.4616 63.6169 25.3456C63.6169 26.2297 63.41 27.025 62.9959 27.7313C62.5818 28.4376 62.0081 28.9924 61.275 29.3955C60.5418 29.7985 59.7223 30 58.8167 30ZM58.8167 28.843C59.4809 28.843 60.0782 28.6912 60.6086 28.3879C61.1392 28.0845 61.5574 27.6662 61.8636 27.1333C62.1699 26.6001 62.3229 26.0042 62.3229 25.3455C62.3229 24.6867 62.1699 24.0909 61.8636 23.5577C61.5574 23.0247 61.1392 22.6064 60.6086 22.3031C60.0782 21.9998 59.4809 21.848 58.8167 21.848C58.1525 21.848 57.5508 21.9998 57.0118 22.3031C56.4726 22.6064 56.05 23.0247 55.7438 23.5577C55.4375 24.0909 55.2845 24.6867 55.2845 25.3455C55.2845 26.0042 55.4375 26.6001 55.7438 27.1333C56.05 27.6662 56.4726 28.0845 57.0118 28.3879C57.551 28.6912 58.1525 28.843 58.8167 28.843ZM78.8068 28.7649V29.8961H72.2341V20.7953H78.6258V21.9265H73.5279V24.7216H78.0694V25.8267H73.5279V28.7649H78.8068ZM84.914 30.0001C84.0083 30.0001 83.1911 29.7986 82.462 29.3956C81.7332 28.9926 81.1617 28.4379 80.7476 27.7314C80.3336 27.0251 80.1266 26.2297 80.1266 25.3458C80.1266 24.4616 80.3336 23.6664 80.7476 22.9601C81.1617 22.2538 81.7354 21.699 82.4686 21.2959C83.2018 20.8929 84.0212 20.6914 84.9268 20.6914C85.6341 20.6914 86.2811 20.8106 86.8677 21.049C87.4542 21.2873 87.9546 21.6405 88.3686 22.1086L87.5275 22.9277C86.846 22.2082 85.9964 21.8486 84.9785 21.8486C84.3058 21.8486 83.6977 22.0003 83.1543 22.3037C82.6109 22.607 82.1861 23.0253 81.8799 23.5583C81.5737 24.0914 81.4206 24.6873 81.4206 25.346C81.4206 26.0048 81.5737 26.6007 81.8799 27.1338C82.1861 27.6668 82.6109 28.0851 83.1543 28.3884C83.6977 28.6918 84.3058 28.8435 84.9785 28.8435C85.9877 28.8435 86.8374 28.4795 87.5275 27.7513L88.3686 28.5704C87.9544 29.0384 87.452 29.3939 86.8612 29.6365C86.2704 29.8791 85.6213 30.0005 84.914 30.0005V30.0001ZM91.9137 21.9264H88.8084V20.7952H96.2998V21.9264H93.1945V29.8961H91.9135V21.9264H91.9137ZM67.0198 30.0001C66.4764 30.0001 65.9717 29.8853 65.5059 29.6556C65.0401 29.4258 64.6649 29.1031 64.3801 28.687L65.1305 27.8028C65.6308 28.5223 66.2606 28.8819 67.0196 28.8819C67.5286 28.8819 67.9145 28.7259 68.1776 28.4139C68.4407 28.1018 68.5723 27.6426 68.5723 27.0358V21.9264H65.2988V20.7952H69.8532V26.9707C69.8532 27.9761 69.6138 28.7324 69.1351 29.2394C68.6563 29.7464 67.9511 30 67.0196 30L67.0198 30.0001Z" fill="#333333"/>
<path d="M4.68269 0.829803V2.4203H3.60156V0.829803H4.68269ZM20.0771 0.829803V3.22697H18.9959V0.829803H20.0771ZM13.9193 0.829803V3.22697H12.8381V0.829803H13.9193ZM7.76145 0.829803V3.22697H6.68033V0.829803H7.76145ZM23.1562 0.829803V2.4203H22.0751V0.829803H23.1562ZM16.998 0.829803V2.4203H15.9169V0.829803H16.998ZM10.8402 0.829803V2.4203H9.7591V0.829803H10.8402Z" fill="#333333"/>
<path d="M0.675781 22.3332H2.25863V23.4195H0.675781V22.3332ZM0.675781 3.7702H2.25863V4.85655H0.675781V3.7702ZM0.675781 6.8644H3.06141V7.95075H0.675781V6.8644ZM0.675781 13.052H3.06141V14.1383H0.675781V13.052ZM0.675781 19.2395H3.06141V20.3259H0.675781V19.2395ZM0.675781 9.95818H2.25863V11.0445H0.675781V9.95818ZM0.675781 16.1458H2.25863V17.2321H0.675781V16.1458Z" fill="#333333"/>
</svg>
