<svg width="160" height="48" viewBox="0 0 160 48" fill="none" xmlns="http://www.w3.org/2000/svg">
<g clip-path="url(#clip0_2122_1125)">
<path fill-rule="evenodd" clip-rule="evenodd" d="M11.5537 26.7026H19.5804L29.4338 16.8016H11.5537V26.7026Z" fill="#00A0E3"/>
<path d="M12.4193 25.8334H19.2229L27.3464 17.6706H12.4193V25.8334ZM19.5809 27.5716H10.6895V15.9324H31.5222L19.939 27.5716H19.5809Z" fill="#00A0E3"/>
<path d="M11.554 12.7205H10.6892V10.9824H34.0024L42.9618 1.97968H1.7298V43.4108L11.5179 33.5756L12.7407 34.8044L0 47.6067V0.241516H47.1376L34.7186 12.7205H11.554Z" fill="white"/>
<path d="M65.23 6.32037V12.1486H76.8678V17.9387H65.23V27.0217H57.7725V0.529999H78.4498V6.32037H65.23Z" fill="#00A0E3"/>
<path d="M98.8077 21.8748H87.6592L85.5879 27.0217H77.9797L89.6177 0.529999H96.9623L108.638 27.0217H100.879L98.8079 21.8748H98.8077ZM96.6231 16.3493L93.2334 7.87197L89.8437 16.3493H96.6231Z" fill="#00A0E3"/>
<path d="M122.114 27.5517C119.979 27.5517 117.908 27.2866 115.899 26.7569C113.891 26.2269 112.259 25.5207 111.003 24.6375L113.451 19.1122C114.631 19.8943 116 20.5251 117.556 21.0043C119.113 21.4838 120.645 21.7235 122.151 21.7235C125.014 21.7235 126.445 21.0043 126.445 19.5662C126.445 18.8093 126.037 18.248 125.221 17.8821C124.405 17.5162 123.093 17.1315 121.285 16.7277C119.302 16.2988 117.645 15.8384 116.314 15.3463C114.983 14.8544 113.841 14.0659 112.886 12.981C111.932 11.896 111.455 10.4327 111.455 8.59091C111.455 6.9761 111.895 5.51921 112.774 4.21958C113.652 2.92039 114.964 1.89219 116.709 1.1352C118.454 0.378217 120.595 -0.000167847 123.131 -0.000167847C124.864 -0.000167847 126.571 0.195367 128.253 0.586437C129.935 0.977507 131.417 1.55165 132.698 2.30841L130.4 7.87154C127.889 6.50936 125.454 5.82783 123.093 5.82783C121.612 5.82783 120.532 6.04851 119.854 6.49033C119.176 6.93192 118.837 7.50584 118.837 8.21208C118.837 8.91855 119.239 9.44829 120.042 9.80152C120.846 10.1547 122.139 10.5204 123.922 10.8988C125.93 11.3277 127.594 11.7884 128.912 12.2803C130.23 12.7724 131.373 13.5543 132.34 14.6267C133.306 15.6988 133.79 17.156 133.79 18.9978C133.79 20.5872 133.35 22.0255 132.471 23.3122C131.593 24.599 130.274 25.627 128.517 26.3966C126.759 27.1663 124.625 27.551 122.114 27.551V27.5517Z" fill="#00A0E3"/>
<path d="M144.482 6.47151H136.385V0.529999H160V6.47151H151.94V27.0217H144.482V6.47151Z" fill="#00A0E3"/>
<path d="M63.424 33.2723C65.3009 33.2723 66.7776 33.7228 67.8542 34.6244C68.9305 35.5257 69.4688 36.7672 69.4688 38.3479C69.4688 39.929 68.9305 41.17 67.8542 42.0714C66.7776 42.9727 65.3009 43.4235 63.424 43.4235H59.8425V47.8335H57.7725V33.2723H63.4242H63.424ZM63.3619 41.6138C64.6729 41.6138 65.6736 41.333 66.3636 40.7713C67.0538 40.2096 67.3988 39.4019 67.3988 38.3479C67.3988 37.2939 67.0538 36.4861 66.3636 35.9245C65.6736 35.3628 64.6729 35.0822 63.3619 35.0822H59.8425V41.614H63.3619V41.6138ZM82.2006 47.8335L79.0747 43.3611C78.6881 43.3889 78.3845 43.4029 78.1637 43.4029H74.5822V47.8337H72.5122V33.2725H78.164C80.0409 33.2725 81.5176 33.7231 82.5941 34.6246C83.6705 35.526 84.2088 36.7674 84.2088 38.3481C84.2088 39.4714 83.9326 40.4281 83.3806 41.2188C82.8286 42.0092 82.0419 42.5847 81.0204 42.9451L84.4572 47.8337H82.2006V47.8335ZM78.1017 41.6346C79.4127 41.6346 80.4133 41.3502 81.1033 40.7816C81.7936 40.2129 82.1386 39.4017 82.1386 38.3477C82.1386 37.2936 81.7936 36.4859 81.1033 35.9242C80.4133 35.3626 79.4127 35.082 78.1017 35.082H74.5822V41.6346H78.1017ZM94.1042 48C92.6412 48 91.323 47.6776 90.15 47.0328C88.9768 46.388 88.0556 45.4969 87.3863 44.3598C86.7172 43.2227 86.3824 41.9537 86.3824 40.553C86.3824 39.1523 86.7172 37.8835 87.3863 36.7462C88.0556 35.6091 88.9768 34.718 90.15 34.0732C91.323 33.4284 92.6412 33.106 94.1042 33.106C95.5534 33.106 96.8644 33.4284 98.0374 34.0732C99.2104 34.718 100.128 35.6056 100.791 36.7359C101.453 37.866 101.785 39.1385 101.785 40.553C101.785 41.9675 101.453 43.24 100.791 44.3701C100.128 45.5002 99.2104 46.3878 98.0374 47.0328C96.8644 47.6776 95.5532 48 94.1042 48ZM94.1042 46.1487C95.1668 46.1487 96.1226 45.9059 96.9713 45.4206C97.8202 44.9353 98.4893 44.266 98.9793 43.4132C99.4692 42.5602 99.7141 41.6068 99.7141 40.5528C99.7141 39.4988 99.4692 38.5454 98.9793 37.6924C98.4893 36.8396 97.8202 36.1703 96.9713 35.685C96.1226 35.1996 95.1668 34.9569 94.1042 34.9569C93.0415 34.9569 92.0788 35.1996 91.2164 35.685C90.3535 36.1703 89.6775 36.8396 89.1875 37.6924C88.6975 38.5454 88.4527 39.4988 88.4527 40.5528C88.4527 41.6068 88.6975 42.5602 89.1875 43.4132C89.6775 44.266 90.3535 44.9353 91.2164 45.4206C92.079 45.9059 93.0415 46.1487 94.1042 46.1487ZM126.088 46.0238V47.8337H115.572V33.2725H125.799V35.0824H117.642V39.5545H124.908V41.3227H117.642V46.0238H126.088ZM135.86 48.0002C134.411 48.0002 133.103 47.6778 131.937 47.033C130.771 46.3882 129.856 45.5007 129.194 44.3703C128.531 43.2402 128.2 41.9675 128.2 40.5532C128.2 39.1385 128.531 37.8663 129.194 36.7361C129.856 35.606 130.774 34.7184 131.947 34.0734C133.12 33.4287 134.431 33.1063 135.88 33.1063C137.012 33.1063 138.047 33.297 138.986 33.6784C139.924 34.0597 140.725 34.6248 141.387 35.3737L140.042 36.6843C138.951 35.5332 137.592 34.9577 135.963 34.9577C134.887 34.9577 133.914 35.2005 133.044 35.6858C132.175 36.1712 131.495 36.8405 131.005 37.6932C130.515 38.5463 130.27 39.4997 130.27 40.5537C130.27 41.6077 130.515 42.5611 131.005 43.4141C131.495 44.2669 132.175 44.9361 133.044 45.4215C133.914 45.9068 134.887 46.1496 135.963 46.1496C137.578 46.1496 138.937 45.5671 140.042 44.402L141.387 45.7126C140.725 46.4615 139.921 47.0302 138.975 47.4184C138.03 47.8066 136.992 48.0008 135.86 48.0008V48.0002ZM147.059 35.0822H142.091V33.2723H154.077V35.0822H149.109V47.8337H147.059V35.0822H147.059ZM107.229 48.0002C106.36 48.0002 105.552 47.8164 104.807 47.449C104.062 47.0813 103.461 46.5649 103.006 45.8992L104.206 44.4845C105.007 45.6356 106.014 46.2111 107.229 46.2111C108.043 46.2111 108.661 45.9615 109.082 45.4622C109.503 44.9628 109.713 44.2281 109.713 43.2572V35.0822H104.476V33.2723H111.763V43.1531C111.763 44.7618 111.38 45.9718 110.614 46.783C109.848 47.5942 108.719 48 107.229 48L107.229 48.0002Z" fill="white"/>
<path d="M7.4925 1.32767V3.87247H5.7627V1.32767H7.4925ZM32.1235 1.32767V5.16313H30.3937V1.32767H32.1235ZM22.271 1.32767V5.16313H20.5412V1.32767H22.271ZM12.4185 1.32767V5.16313H10.6887V1.32767H12.4185ZM37.0502 1.32767V3.87247H35.3204V1.32767H37.0502ZM27.197 1.32767V3.87247H25.4672V1.32767H27.197ZM17.3446 1.32767V3.87247H15.6147V1.32767H17.3446Z" fill="white"/>
<path d="M1.08105 35.7331H3.61361V37.4712H1.08105V35.7331ZM1.08105 6.03232H3.61361V7.77048H1.08105V6.03232ZM1.08105 10.983H4.89807V12.7212H1.08105V10.983ZM1.08105 20.8831H4.89807V22.6213H1.08105V20.8831ZM1.08105 30.7833H4.89807V32.5214H1.08105V30.7833ZM1.08105 15.9331H3.61361V17.6712H1.08105V15.9331ZM1.08105 25.8332H3.61361V27.5714H1.08105V25.8332Z" fill="white"/>
</g>
<defs>
<clipPath id="clip0_2122_1125">
<rect width="160" height="48" fill="white"/>
</clipPath>
</defs>
</svg>
