<svg width="50" height="50" viewBox="0 0 50 50" fill="none" xmlns="http://www.w3.org/2000/svg">
<path d="M44.5589 3.21436H11.5599C9.53451 3.21436 7.89258 4.85628 7.89258 6.88171V43.7044M40.8916 8.00821V43.7142" stroke="white" stroke-width="1.51515" stroke-linecap="round" stroke-linejoin="round"/>
<path d="M40.8945 6.88171C40.8945 4.85629 42.5365 3.21436 44.5619 3.21436C46.5873 3.21436 48.2292 4.85629 48.2292 6.88171V8.05409H40.8945V6.88171Z" stroke="white" stroke-width="1.51515" stroke-linecap="round" stroke-linejoin="round"/>
<path d="M34.5955 43.7043H1.77734V45.015C1.77734 47.0404 3.41927 48.6823 5.44469 48.6823H37.791" stroke="white" stroke-width="1.51515" stroke-linecap="round" stroke-linejoin="round"/>
<path d="M40.8913 43.7043V45.5336C40.8913 47.2726 39.4815 48.6823 37.7425 48.6823C36.0035 48.6823 34.5938 47.2726 34.5938 45.5336V43.7043" stroke="white" stroke-width="1.51515" stroke-linecap="round" stroke-linejoin="round"/>
<path d="M29.7305 35.0608V40.0009L32.1597 38.4198L34.5889 40.0009V35.0608" stroke="white" stroke-width="1.51515" stroke-linecap="round" stroke-linejoin="round"/>
<circle cx="32.1603" cy="31.8549" r="3.98059" stroke="white" stroke-width="1.51515" stroke-linecap="round" stroke-linejoin="round"/>
<path d="M19.5625 9.48706H29.2217" stroke="white" stroke-width="1.51515" stroke-linecap="round" stroke-linejoin="round"/>
<path d="M12.1387 14.0334H36.6512" stroke="white" stroke-width="1.51515" stroke-linecap="round" stroke-linejoin="round"/>
<path d="M12.1387 18.5802H36.6512" stroke="white" stroke-width="1.51515" stroke-linecap="round" stroke-linejoin="round"/>
<path d="M12.1387 23.1267H36.6512" stroke="white" stroke-width="1.51515" stroke-linecap="round" stroke-linejoin="round"/>
<path d="M12.1387 32.4011H21.1145" stroke="white" stroke-width="1.51515" stroke-linecap="round" stroke-linejoin="round"/>
<path d="M12.1387 35.9552H21.1145" stroke="white" stroke-width="1.51515" stroke-linecap="round" stroke-linejoin="round"/>
</svg>
