<svg width="50" height="50" viewBox="0 0 50 50" fill="none" xmlns="http://www.w3.org/2000/svg">
<path d="M12.3098 3.21399H6.99786C6.19327 3.21399 5.54102 3.86624 5.54102 4.67083V11.9715C5.54102 12.7761 6.19327 13.4283 6.99786 13.4283H14.2985C15.1031 13.4283 15.7553 12.7761 15.7553 11.9715V4.77981L10.6524 10.0894L8.00244 7.42978" stroke="white" stroke-width="1.51515" stroke-linecap="round" stroke-linejoin="round"/>
<path d="M20.5488 4.0921H39.0639" stroke="white" stroke-width="1.51515" stroke-linecap="round" stroke-linejoin="round"/>
<path d="M20.5488 8.32117H44.4589" stroke="white" stroke-width="1.51515" stroke-linecap="round" stroke-linejoin="round"/>
<path d="M20.5488 12.5504H32.7695" stroke="white" stroke-width="1.51515" stroke-linecap="round" stroke-linejoin="round"/>
<path d="M12.3098 20.4893H6.99786C6.19327 20.4893 5.54102 21.1416 5.54102 21.9462V29.2468C5.54102 30.0514 6.19327 30.7036 6.99786 30.7036H14.2985C15.1031 30.7036 15.7553 30.0514 15.7553 29.2468V22.0551L10.6524 27.3647L8.00244 24.7051" stroke="white" stroke-width="1.51515" stroke-linecap="round" stroke-linejoin="round"/>
<path d="M20.5488 21.3674H39.0639" stroke="white" stroke-width="1.51515" stroke-linecap="round" stroke-linejoin="round"/>
<path d="M20.5488 25.5964H44.4589" stroke="white" stroke-width="1.51515" stroke-linecap="round" stroke-linejoin="round"/>
<path d="M20.5488 29.8255H32.7695" stroke="white" stroke-width="1.51515" stroke-linecap="round" stroke-linejoin="round"/>
<path d="M12.3098 37.7647H6.99786C6.19327 37.7647 5.54102 38.417 5.54102 39.2216V46.5222C5.54102 47.3268 6.19327 47.979 6.99786 47.979H14.2985C15.1031 47.979 15.7553 47.3268 15.7553 46.5222V39.3305L10.6524 44.6401L8.00244 41.9805" stroke="white" stroke-width="1.51515" stroke-linecap="round" stroke-linejoin="round"/>
<path d="M20.5488 38.6431H39.0639" stroke="white" stroke-width="1.51515" stroke-linecap="round" stroke-linejoin="round"/>
<path d="M20.5488 42.872H44.4589" stroke="white" stroke-width="1.51515" stroke-linecap="round" stroke-linejoin="round"/>
<path d="M20.5488 47.1012H32.7695" stroke="white" stroke-width="1.51515" stroke-linecap="round" stroke-linejoin="round"/>
</svg>
