<svg width="67" height="66" viewBox="0 0 67 66" fill="none" xmlns="http://www.w3.org/2000/svg">
<path d="M23.6007 2.5896H43.0649C48.7661 7.21523 54.4336 9.43971 58.484 10.2075C59.3822 10.3778 60.0656 11.1453 60.0656 12.0595V35.2825C60.0656 48.437 47.2748 60.0439 33.3328 64.8157C19.3909 60.0439 6.6001 48.437 6.6001 35.2825V12.0595C6.6001 11.1453 7.28348 10.3778 8.18168 10.2075C12.2321 9.43971 17.8995 7.21523 23.6007 2.5896Z" stroke="white" stroke-width="2" stroke-linejoin="round"/>
<path d="M19.8336 57.6882C18.107 55.1 17.1001 51.9877 17.1001 48.6394V34.4201C17.1001 32.9922 18.2537 31.8347 19.6767 31.8347H46.9892C48.4123 31.8347 49.5659 32.9922 49.5659 34.4201V48.6394C49.5659 51.9867 48.5596 55.0981 46.834 57.6857" stroke="white" stroke-width="2" stroke-linejoin="round"/>
<path d="M33.3332 39.129C30.8929 39.129 28.9146 41.1073 28.9146 43.5477C28.9146 45.1209 29.7367 46.502 30.9747 47.285V52.5241C30.9747 53.8267 32.0307 54.8827 33.3333 54.8827C34.6359 54.8827 35.6918 53.8267 35.6918 52.5241V47.2849C36.9298 46.5019 37.7519 45.1208 37.7519 43.5477C37.7519 41.1073 35.7736 39.129 33.3332 39.129Z" stroke="white" stroke-width="2" stroke-linejoin="round"/>
<path d="M45.3738 31.8344V25.0042C45.3738 18.6005 40.1826 13.4092 33.7789 13.4092H32.8874C26.4837 13.4092 21.2925 18.6005 21.2925 25.0042V31.8344" stroke="white" stroke-width="2" stroke-linejoin="round"/>
<path d="M40.0359 31.8347V25.5862C40.0359 21.8852 37.0356 18.8849 33.3346 18.8849C29.6336 18.8849 26.6333 21.8852 26.6333 25.5863V31.8347" stroke="white" stroke-width="2" stroke-linejoin="round"/>
</svg>
