<svg width="50" height="50" viewBox="0 0 50 50" fill="none" xmlns="http://www.w3.org/2000/svg">
<path d="M24.1426 28.1155C24.1426 27.4122 24.7127 26.8422 25.4159 26.8422H26.1668C26.87 26.8422 27.4401 27.4122 27.4401 28.1155C27.4401 28.8187 26.87 29.3888 26.1668 29.3888H25.4159C24.7127 29.3888 24.1426 28.8187 24.1426 28.1155Z" stroke="white" stroke-width="1.51515" stroke-linecap="round" stroke-linejoin="round"/>
<path d="M14.8008 18.088L14.9432 24.1596C14.995 26.3679 16.0804 28.4158 17.8597 29.6624L20.6409 31.6108C21.4365 32.1682 22.3778 32.4665 23.3415 32.4665H26.5366C27.5004 32.4665 28.4417 32.1682 29.2373 31.6108L32.0184 29.6624C33.7978 28.4158 34.8832 26.3679 34.935 24.1596L35.0774 18.088" stroke="white" stroke-width="1.51515" stroke-linecap="round" stroke-linejoin="round"/>
<path d="M20.918 0.896973H24.9764H29.226C32.0754 0.896973 37.7421 3.47371 37.2085 9.63077L36.3776 18.088H34.8345C33.8612 16.2838 33.2726 12.4004 33.055 10.7584C29.2566 13.0612 20.6708 13.9732 16.8526 14.1413C16.6864 15.3995 15.7547 17.2967 15.3095 18.088H13.7665L12.9356 9.63077C12.402 3.47371 18.0687 0.896973 20.918 0.896973Z" stroke="white" stroke-width="1.51515" stroke-linecap="round" stroke-linejoin="round"/>
<path d="M13.5963 17.8341H13.5147C12.6954 17.8341 12.0312 18.4983 12.0312 19.3176V22.6277C12.0312 23.6518 12.8615 24.482 13.8856 24.482H14.9396" stroke="white" stroke-width="1.51515" stroke-linecap="round" stroke-linejoin="round"/>
<path d="M36.4007 17.8341H36.4856C37.3049 17.8341 37.9691 18.4983 37.9691 19.3176V22.6277C37.9691 23.6518 37.1388 24.482 36.1147 24.482H34.9219" stroke="white" stroke-width="1.51515" stroke-linecap="round" stroke-linejoin="round"/>
<path d="M27.4297 28.1827C29.4744 28.2987 33.9684 27.7302 35.5867 24.5283" stroke="white" stroke-width="1.51515" stroke-linecap="round" stroke-linejoin="round"/>
<path d="M25.0001 39.7978L25.0001 47.9933H11.1976M15.4623 34.6812L19.6042 42.6203L25.0001 39.0669L16.8142 32.0128L15.2612 34.2238L15.4623 34.6812ZM15.4623 34.6812L6.72996 36.9202C5.05448 37.3499 3.88281 38.8599 3.88281 40.5895V46.0994C3.88281 47.1454 4.73078 47.9933 5.77681 47.9933H11.1976M4.71954 38.2441L9.58062 42.4975C10.6082 43.3967 11.1976 44.6956 11.1976 46.061V47.9933" stroke="white" stroke-width="1.51515" stroke-linecap="round" stroke-linejoin="round"/>
<path d="M25.0018 47.9932H38.8044M34.5396 34.6811L30.3977 42.6202L25.0018 39.0668L33.1878 32.0127L34.7407 34.2237L34.5396 34.6811ZM34.5396 34.6811L43.272 36.9201C44.9475 37.3497 46.1191 38.8597 46.1191 40.5894V46.0992C46.1191 47.1453 45.2712 47.9932 44.2251 47.9932H38.8044M45.2824 38.244L40.4213 42.4974C39.3938 43.3965 38.8044 44.6955 38.8044 46.0609V47.9932" stroke="white" stroke-width="1.51515" stroke-linecap="round" stroke-linejoin="round"/>
<path d="M17.6797 29.493V32.7692" stroke="white" stroke-width="1.51515" stroke-linecap="round" stroke-linejoin="round"/>
<path d="M32.3164 29.4929V32.7691" stroke="white" stroke-width="1.51515" stroke-linecap="round" stroke-linejoin="round"/>
</svg>
