<svg width="66" height="66" viewBox="0 0 66 66" fill="none" xmlns="http://www.w3.org/2000/svg">
<path d="M58.8173 4.24292H15.2586C12.5851 4.24292 10.4177 6.41027 10.4177 9.08382V57.6898M53.9764 10.5708V57.7027" stroke="white" stroke-width="2" stroke-linecap="round" stroke-linejoin="round"/>
<path d="M53.9766 9.08383C53.9766 6.41027 56.1439 4.24292 58.8175 4.24292C61.491 4.24292 63.6584 6.41027 63.6584 9.08383V10.6314H53.9766V9.08383Z" stroke="white" stroke-width="2" stroke-linecap="round" stroke-linejoin="round"/>
<path d="M45.6637 57.6896H2.34375V59.4196C2.34375 62.0932 4.51109 64.2605 7.18465 64.2605H49.8818" stroke="white" stroke-width="2" stroke-linecap="round" stroke-linejoin="round"/>
<path d="M53.9768 57.6896V60.1042C53.9768 62.3997 52.1159 64.2605 49.8204 64.2605C47.5249 64.2605 45.6641 62.3997 45.6641 60.1042V57.6896" stroke="white" stroke-width="2" stroke-linecap="round" stroke-linejoin="round"/>
<path d="M39.2422 46.28V52.8009L42.4488 50.7138L45.6553 52.8009V46.28" stroke="white" stroke-width="2" stroke-linecap="round" stroke-linejoin="round"/>
<circle cx="42.4477" cy="42.0481" r="5.25438" stroke="white" stroke-width="2" stroke-linecap="round" stroke-linejoin="round"/>
<path d="M25.8203 12.5228H38.5705" stroke="white" stroke-width="2" stroke-linecap="round" stroke-linejoin="round"/>
<path d="M16.0195 18.5241H48.3761" stroke="white" stroke-width="2" stroke-linecap="round" stroke-linejoin="round"/>
<path d="M16.0195 24.5256H48.3761" stroke="white" stroke-width="2" stroke-linecap="round" stroke-linejoin="round"/>
<path d="M16.0195 30.5271H48.3761" stroke="white" stroke-width="2" stroke-linecap="round" stroke-linejoin="round"/>
<path d="M16.0195 42.7694H27.8676" stroke="white" stroke-width="2" stroke-linecap="round" stroke-linejoin="round"/>
<path d="M16.0195 47.4606H27.8676" stroke="white" stroke-width="2" stroke-linecap="round" stroke-linejoin="round"/>
</svg>
