<svg width="106" height="135" viewBox="0 0 106 135" fill="none" xmlns="http://www.w3.org/2000/svg">
<path d="M61.6367 49.0193C69.6736 49.0193 76.9908 50.6354 83.5882 53.8674C90.1857 57.0994 95.4037 61.7081 99.2422 67.6934C103.081 73.5589 105 80.3821 105 88.163C105 96.5424 102.901 103.904 98.7024 110.249C94.504 116.593 88.7463 121.501 81.4291 124.972C74.2318 128.324 66.1949 130 57.3183 130C39.6851 130 25.8904 124.613 15.9343 113.84C5.97809 103.066 1 87.6842 1 67.6934C1 53.4484 3.69896 41.2385 9.09689 31.0635C14.4948 20.8886 21.9919 13.1676 31.5882 7.90055C41.3045 2.63352 52.5202 0 65.2353 0C71.9527 0 78.3702 0.778082 84.4879 2.33425C90.7255 3.77071 96.0034 5.86556 100.322 8.61878L89.5259 29.9862C83.2883 25.7965 75.4314 23.7017 65.955 23.7017C55.2791 23.7017 46.8224 26.814 40.5848 33.0387C34.3472 39.2634 30.9885 48.3011 30.5086 60.1519C37.9458 52.7302 48.3218 49.0193 61.6367 49.0193ZM55.699 108.273C61.9366 108.273 66.9746 106.598 70.8131 103.246C74.7716 99.8941 76.7509 95.3453 76.7509 89.5994C76.7509 83.8536 74.7716 79.3048 70.8131 75.953C66.9746 72.4816 61.8166 70.7458 55.3391 70.7458C48.9815 70.7458 43.7635 72.5414 39.6851 76.1326C35.6067 79.604 33.5675 84.093 33.5675 89.5994C33.5675 95.1059 35.5467 99.5948 39.5052 103.066C43.4637 106.538 48.8616 108.273 55.699 108.273Z" fill="#00A0E3"/>
</svg>
