<svg width="106" height="135" viewBox="0 0 106 135" fill="none" xmlns="http://www.w3.org/2000/svg">
<path d="M101 104.27V128H5.76114V109.124L54.3708 63.2809C59.5318 58.367 63.0125 54.1723 64.8128 50.6966C66.6132 47.1011 67.5134 43.5655 67.5134 40.0899C67.5134 35.0562 65.773 31.221 62.2923 28.5843C58.9317 25.8277 53.9507 24.4494 47.3494 24.4494C41.8283 24.4494 36.8473 25.5281 32.4064 27.6854C27.9655 29.7228 24.2448 32.8389 21.2442 37.0337L0 23.3708C4.92097 16.0599 11.7023 10.367 20.344 6.29213C28.9857 2.09738 38.8877 0 50.0499 0C59.4118 0 67.5734 1.55805 74.5348 4.67415C81.6162 7.67041 87.0772 11.985 90.918 17.618C94.8788 23.1311 96.8592 29.6629 96.8592 37.2135C96.8592 44.0449 95.4189 50.4569 92.5383 56.4494C89.6578 62.4419 84.0767 69.2734 75.795 76.9438L46.8093 104.27H101Z" fill="#00A0E3"/>
</svg>
