<svg width="80" height="102" viewBox="0 0 80 102" fill="none" xmlns="http://www.w3.org/2000/svg">
<path d="M52.0754 38.8272C60.444 40.1896 66.857 43.323 71.3142 48.2275C75.7714 53.0412 78 59.0356 78 66.2107C78 71.7509 76.5446 76.8825 73.6338 81.6053C70.7229 86.2374 66.2657 89.9611 60.2621 92.7767C54.3495 95.5922 47.0724 97 38.4309 97C31.6996 97 25.0592 96.1372 18.5099 94.4115C12.0515 92.595 6.54817 90.052 2 86.7823L10.596 69.889C14.2346 72.6138 18.4189 74.7481 23.149 76.2921C27.9701 77.7453 32.8821 78.4719 37.8851 78.4719C43.4339 78.4719 47.8001 77.4274 50.9838 75.3385C54.1676 73.1587 55.7594 70.1161 55.7594 66.2107C55.7594 58.3998 49.8013 54.4944 37.8851 54.4944H27.7881V39.9171L47.4363 17.7107H6.77558V0H73.6338V14.3048L52.0754 38.8272Z" fill="#00A0E3"/>
</svg>
