<svg width="106" height="135" viewBox="0 0 106 135" fill="none" xmlns="http://www.w3.org/2000/svg">
<path d="M68.8887 53.236C79.9001 55.0337 88.3381 59.1685 94.2029 65.6405C100.068 71.9925 103 79.9026 103 89.3708C103 96.6816 101.085 103.453 97.2549 109.685C93.4249 115.798 87.5601 120.712 79.6607 124.427C71.8809 128.142 62.3058 130 50.9354 130C42.0784 130 33.3411 128.861 24.7235 126.584C16.2256 124.187 8.98444 120.831 3 116.517L14.3106 94.2247C19.0981 97.8202 24.6038 100.637 30.8277 102.674C37.1712 104.592 43.6343 105.551 50.2172 105.551C57.5182 105.551 63.2633 104.172 67.4524 101.416C71.6415 98.5393 73.7361 94.5243 73.7361 89.3708C73.7361 79.0637 65.8965 73.9101 50.2172 73.9101H36.9318V54.6742L62.7846 25.3708H9.28366V2H97.2549V20.8764L68.8887 53.236Z" fill="#00A0E3"/>
</svg>
