<svg width="18" height="19" viewBox="0 0 18 19" fill="none" xmlns="http://www.w3.org/2000/svg">
<path fill-rule="evenodd" clip-rule="evenodd" d="M9.13593 2.31974C7.20571 2.31974 5.45726 3.10138 4.19506 4.36358C2.92945 5.62578 2.15122 7.37536 2.15122 9.30786C2.15122 9.95884 2.24098 10.5916 2.40344 11.1824C2.57271 11.7959 2.82947 12.3799 3.15099 12.9172C3.21234 13.0172 3.21802 13.1342 3.1828 13.2365L2.09101 16.4789L5.46294 15.3985C5.572 15.3632 5.68334 15.3791 5.77309 15.436C6.27865 15.7143 6.82171 15.9313 7.38635 16.0778C7.93849 16.221 8.52698 16.2982 9.13706 16.2982C11.0673 16.2982 12.8157 15.5166 14.0779 14.2544C15.3424 12.9922 16.1218 11.2426 16.1218 9.31354C16.1218 7.38445 15.339 5.63487 14.0779 4.36926C12.8123 3.10365 11.0662 2.32202 9.13706 2.32202L9.13593 2.31974ZM3.6645 3.83643C5.06758 2.43449 7.00235 1.56879 9.13593 1.56879C11.2729 1.56879 13.2088 2.4379 14.6074 3.83643C16.0104 5.23837 16.875 7.17427 16.875 9.30786C16.875 11.4392 16.0127 13.3705 14.613 14.7691L14.6062 14.7759C13.2043 16.1778 11.2684 17.0435 9.13479 17.0435C8.47018 17.0435 7.82147 16.9572 7.2023 16.797C6.61721 16.647 6.05825 16.4289 5.53792 16.1551L1.61271 17.4128C1.53887 17.4355 1.45593 17.4389 1.37982 17.4128C1.18554 17.3457 1.07989 17.1344 1.14351 16.9401L2.41821 13.1524C2.10237 12.6025 1.85357 12.0061 1.67747 11.379C1.49229 10.7178 1.39345 10.0179 1.39345 9.30559C1.39345 7.17541 2.25574 5.24291 3.65541 3.84097L3.66109 3.83416L3.6645 3.83643ZM3.71903 14.869L5.84921 14.1851L6.30706 14.4373C7.17617 14.9168 8.13958 15.1656 9.13366 15.1656C12.367 15.1656 14.9845 12.5469 14.9845 9.31354C14.9845 6.08135 12.3658 3.46266 9.13366 3.46266C5.90147 3.46266 3.28618 6.08135 3.28618 9.31354C3.28618 10.3803 3.57361 11.4187 4.12348 12.3321L4.41432 12.8116L3.72358 14.8645L3.71903 14.869ZM7.41816 6.39832C7.30341 6.12339 7.21707 6.1143 7.04211 6.10407C6.98076 6.10067 6.91487 6.09726 6.84329 6.09726C6.61607 6.09726 6.37977 6.16429 6.24003 6.30857C6.06734 6.48353 5.63335 6.89934 5.63335 7.75255C5.63335 8.60234 6.25252 9.42601 6.33887 9.54076C6.42521 9.6555 7.54881 11.4289 9.29385 12.1538C10.6572 12.7184 11.0605 12.6673 11.3729 12.6014C11.8228 12.5026 12.3954 12.1697 12.5351 11.7641C12.6783 11.3619 12.6783 11.0143 12.6374 10.9427C12.5953 10.8723 12.4806 10.828 12.3056 10.7416C12.1329 10.6564 11.2831 10.236 11.1241 10.1792C10.965 10.1213 10.8173 10.1418 10.6958 10.3065C10.5265 10.5394 10.3675 10.7791 10.23 10.9234C10.1243 11.0347 9.95505 11.0506 9.8119 10.9904C9.6199 10.9075 9.08026 10.7189 8.41905 10.1315C7.90554 9.67482 7.55676 9.10677 7.45792 8.93408C7.35908 8.7614 7.44883 8.65574 7.52836 8.56372C7.61811 8.45465 7.69764 8.37853 7.78284 8.27629C7.86919 8.17404 7.9169 8.11951 7.97484 8.0059C8.03278 7.89115 7.99416 7.773 7.94871 7.68324C7.90441 7.5969 7.55903 6.74824 7.41588 6.39946L7.41816 6.39832Z" fill="white"/>
</svg>
