<svg width="50" height="50" viewBox="0 0 50 50" fill="none" xmlns="http://www.w3.org/2000/svg">
<path d="M8.87817 27.4147V5.08059C8.87817 3.3959 10.2612 2.00002 11.9658 2.00002H37.1979L45.5443 10.3432V44.9355C45.5443 46.6202 44.1613 48 42.4727 48H11.9658C10.2612 48 8.87817 46.6202 8.87817 44.9355V43.331" stroke="#282828" stroke-width="1.5" stroke-miterlimit="22.9256" stroke-linecap="round" stroke-linejoin="round"/>
<path d="M37.1979 2.00002V8.81899C37.1979 9.65331 37.8894 10.3432 38.7256 10.3432H45.5442" stroke="#282828" stroke-width="1.5" stroke-miterlimit="22.9256" stroke-linecap="round" stroke-linejoin="round"/>
<path d="M8.87814 25.8424H6.51414C5.38842 25.8424 4.45569 26.773 4.45569 27.8961M4.45569 27.8961V28.2972C4.45569 29.4203 5.38842 30.3349 6.51414 30.3349H29.0445C30.1702 30.3349 31.103 31.2494 31.103 32.3886V41.2773C31.103 42.4004 30.1702 43.331 29.0445 43.331H6.51414C5.38842 43.331 4.45569 42.4004 4.45569 41.2773V27.8961Z" stroke="#282828" stroke-width="1.5" stroke-miterlimit="22.9256" stroke-linecap="round" stroke-linejoin="round"/>
<path fill-rule="evenodd" clip-rule="evenodd" d="M17.4657 34.0733H16.1149V40.0259H17.4657C18.8648 40.0259 20.0227 38.8706 20.0227 37.4587V36.6244C20.0227 35.2285 18.8648 34.0733 17.4657 34.0733Z" stroke="#00A0E3" stroke-width="1.25" stroke-miterlimit="22.9256" stroke-linecap="round" stroke-linejoin="round"/>
<path fill-rule="evenodd" clip-rule="evenodd" d="M11.4672 34.0733H9.8269V37.5389H11.4672C12.416 37.5389 13.204 36.7527 13.204 35.8061C13.204 34.8434 12.416 34.0733 11.4672 34.0733Z" stroke="#00A0E3" stroke-width="1.25" stroke-miterlimit="22.9256" stroke-linecap="round" stroke-linejoin="round"/>
<path d="M9.8269 37.5389V40.0258" stroke="#00A0E3" stroke-width="1.25" stroke-miterlimit="22.9256" stroke-linecap="round" stroke-linejoin="round"/>
<path d="M22.9495 40.0259V34.0733H25.7316" stroke="#00A0E3" stroke-width="1.25" stroke-miterlimit="22.9256" stroke-linecap="round" stroke-linejoin="round"/>
<path d="M22.9495 37.1539H25.3295" stroke="#00A0E3" stroke-width="1.25" stroke-miterlimit="22.9256" stroke-linecap="round" stroke-linejoin="round"/>
<path fill-rule="evenodd" clip-rule="evenodd" d="M22.2098 24.9118C23.0299 23.8689 23.7858 22.473 24.4773 21.029C25.5547 18.8148 26.6322 16.1353 27.3398 13.0869C27.5971 11.9798 28.2082 10.1186 26.6161 9.94211C25.1527 9.76562 25.2813 11.691 25.5547 12.5895C26.1498 14.5148 27.6132 16.5365 28.7871 18.0928C30.1702 19.9379 31.7622 21.9275 33.7403 22.9222C34.5765 23.3394 35.7344 23.4838 36.1043 22.3125C36.442 21.1894 34.7695 20.9487 33.9815 20.9167C31.5693 20.7883 29.2213 20.9648 26.8413 21.5263C24.7989 22.0077 22.4992 22.4569 20.5533 23.5961C19.7653 24.0614 18.704 25.1043 19.3472 26.083C20.1031 27.2382 21.6951 25.5375 22.2098 24.9118Z" stroke="#282828" stroke-width="1.5" stroke-miterlimit="22.9256" stroke-linecap="round" stroke-linejoin="round"/>
</svg>
