<svg width="50" height="50" viewBox="0 0 50 50" fill="none" xmlns="http://www.w3.org/2000/svg">
<path d="M8.50549 27.4009V5.06206C8.50549 3.37794 9.9187 2.00003 11.646 2.00003H37.4691L46.0197 10.3371V44.938C46.0197 46.6221 44.6065 48 42.8793 48H11.646C9.9187 48 8.50549 46.6221 8.50549 44.938V43.3235" stroke="#282828" stroke-width="1.5" stroke-miterlimit="22.9256" stroke-linecap="round" stroke-linejoin="round"/>
<path d="M37.4691 2.00003V8.80608C37.4691 9.64118 38.1829 10.3371 39.0393 10.3371H46.0197" stroke="#282828" stroke-width="1.5" stroke-miterlimit="22.9256" stroke-linecap="round" stroke-linejoin="round"/>
<path d="M8.50547 25.8421H6.07875C4.92248 25.8421 3.98035 26.7607 3.98035 27.8881M3.98035 27.8881V28.2778C3.98035 29.4052 4.92248 30.3238 6.07875 30.3238H29.1326C30.2888 30.3238 31.231 31.2563 31.231 32.3698V41.2775C31.231 42.4049 30.2888 43.3235 29.1326 43.3235H6.07875C4.92248 43.3235 3.98035 42.4049 3.98035 41.2775V27.8881Z" stroke="#282828" stroke-width="1.5" stroke-miterlimit="22.9256" stroke-linecap="round" stroke-linejoin="round"/>
<path fill-rule="evenodd" clip-rule="evenodd" d="M10.3754 34.0678H8.99072V40.0109H10.3754C11.8171 40.0109 12.9877 38.8696 12.9877 37.4639V36.6288C12.9877 35.2091 11.8171 34.0678 10.3754 34.0678Z" stroke="#00A0E3" stroke-width="1.25" stroke-miterlimit="22.9256" stroke-linecap="round" stroke-linejoin="round"/>
<path fill-rule="evenodd" clip-rule="evenodd" d="M17.584 34.0678C18.726 34.0678 19.6681 34.9725 19.6681 36.0999V37.9927C19.6681 39.1062 18.726 40.0109 17.584 40.0109C16.442 40.0109 15.4999 39.1062 15.4999 37.9927V36.0999C15.4999 34.9725 16.442 34.0678 17.584 34.0678Z" stroke="#00A0E3" stroke-width="1.25" stroke-miterlimit="22.9256" stroke-linecap="round" stroke-linejoin="round"/>
<path d="M26.206 38.6747C25.9205 39.4542 25.1497 40.0109 24.2504 40.0109C23.1084 40.0109 22.1805 39.1062 22.1805 37.9927V36.0999C22.1805 34.9725 23.1084 34.0678 24.2504 34.0678C25.1497 34.0678 25.9205 34.6245 26.206 35.4039" stroke="#00A0E3" stroke-width="1.25" stroke-miterlimit="22.9256" stroke-linecap="round" stroke-linejoin="round"/>
<path d="M17.7699 15.0415H36.7554" stroke="#282828" stroke-width="1.5" stroke-miterlimit="22.9256" stroke-linecap="round" stroke-linejoin="round"/>
<path d="M17.7699 19.7459H36.7554" stroke="#282828" stroke-width="1.5" stroke-miterlimit="22.9256" stroke-linecap="round" stroke-linejoin="round"/>
<path d="M17.7699 24.4363H30.7885" stroke="#282828" stroke-width="1.5" stroke-miterlimit="22.9256" stroke-linecap="round" stroke-linejoin="round"/>
</svg>
