<svg width="20" height="20" viewBox="0 0 20 20" fill="none" xmlns="http://www.w3.org/2000/svg">
<path fill-rule="evenodd" clip-rule="evenodd" d="M9.47157 13.8265H10.1883C10.1883 13.8265 10.4059 13.8009 10.5171 13.6709C10.6184 13.5522 10.6152 13.3275 10.6152 13.3275C10.6152 13.3275 10.602 12.2812 11.0469 12.1268C11.488 11.9748 12.0525 13.1386 12.6525 13.5862C13.1056 13.9255 13.4503 13.8504 13.4503 13.8504L15.0525 13.8265C15.0525 13.8265 15.8913 13.7704 15.4935 13.0533C15.4618 12.9949 15.2618 12.5227 14.3018 11.5533C13.2968 10.5386 13.4322 10.7019 14.642 8.94678C15.3796 7.87843 15.6739 7.2257 15.5818 6.94597C15.4941 6.67952 14.9522 6.75044 14.9522 6.75044L13.1483 6.76238C13.1483 6.76238 13.0141 6.7433 12.915 6.80708C12.8179 6.87085 12.7549 7.01816 12.7549 7.01816C12.7549 7.01816 12.47 7.84447 12.0891 8.5485C11.2853 10.033 10.9648 10.1111 10.8332 10.0193C10.527 9.80465 10.6042 9.15659 10.6042 8.6958C10.6042 7.25726 10.8053 6.65751 10.2135 6.50186C10.0178 6.45056 9.8721 6.41667 9.37132 6.41067C8.72749 6.40413 8.18226 6.41247 7.87322 6.57758C7.66824 6.68613 7.50992 6.93056 7.60692 6.94424C7.72582 6.96205 7.99598 7.0241 8.13891 7.23578C8.3247 7.50944 8.31703 8.12407 8.31703 8.12407C8.31703 8.12407 8.42385 9.81719 8.06937 10.0276C7.82607 10.1719 7.49238 9.87803 6.77675 8.53062C6.40903 7.8408 6.13237 7.07833 6.13237 7.07833C6.13237 7.07833 6.07921 6.9359 5.98386 6.86011C5.86828 6.76705 5.70554 6.73843 5.70554 6.73843L3.99155 6.75037C3.99155 6.75037 3.73402 6.75758 3.63922 6.87919C3.55595 6.98887 3.63321 7.21189 3.63321 7.21189C3.63321 7.21189 4.97568 10.6292 6.49573 12.3509C7.88972 13.9296 9.47163 13.8264 9.47163 13.8264L9.47157 13.8265Z" fill="#ffffff"/>
<rect x="0.5" y="0.5" width="19" height="19" rx="5.9" stroke="#ffffff"/>
</svg>
