<svg width="66" height="66" viewBox="0 0 66 66" fill="none" xmlns="http://www.w3.org/2000/svg">
<path d="M16.2486 4.24243H9.23676C8.17469 4.24243 7.31372 5.1034 7.31372 6.16547V15.8023C7.31372 16.8644 8.17469 17.7253 9.23676 17.7253H18.8736C19.9357 17.7253 20.7966 16.8644 20.7966 15.8023V6.30931L14.0608 13.318L10.5628 9.80727" stroke="white" stroke-width="2" stroke-linecap="round" stroke-linejoin="round"/>
<path d="M27.1243 5.40155H51.5641" stroke="white" stroke-width="2" stroke-linecap="round" stroke-linejoin="round"/>
<path d="M27.1243 10.9839H58.6856" stroke="white" stroke-width="2" stroke-linecap="round" stroke-linejoin="round"/>
<path d="M27.1243 16.5665H43.2556" stroke="white" stroke-width="2" stroke-linecap="round" stroke-linejoin="round"/>
<path d="M16.2486 27.0459H9.23676C8.17469 27.0459 7.31372 27.9069 7.31372 28.9689V38.6058C7.31372 39.6678 8.17469 40.5288 9.23676 40.5288H18.8736C19.9357 40.5288 20.7966 39.6678 20.7966 38.6058V29.1128L14.0608 36.1214L10.5628 32.6107" stroke="white" stroke-width="2" stroke-linecap="round" stroke-linejoin="round"/>
<path d="M27.1243 28.205H51.5641" stroke="white" stroke-width="2" stroke-linecap="round" stroke-linejoin="round"/>
<path d="M27.1243 33.7874H58.6856" stroke="white" stroke-width="2" stroke-linecap="round" stroke-linejoin="round"/>
<path d="M27.1243 39.3697H43.2556" stroke="white" stroke-width="2" stroke-linecap="round" stroke-linejoin="round"/>
<path d="M16.2486 49.8494H9.23676C8.17469 49.8494 7.31372 50.7103 7.31372 51.7724V61.4092C7.31372 62.4713 8.17469 63.3323 9.23676 63.3323H18.8736C19.9357 63.3323 20.7966 62.4713 20.7966 61.4092V51.9162L14.0608 58.9249L10.5628 55.4142" stroke="white" stroke-width="2" stroke-linecap="round" stroke-linejoin="round"/>
<path d="M27.1243 51.0089H51.5641" stroke="white" stroke-width="2" stroke-linecap="round" stroke-linejoin="round"/>
<path d="M27.1243 56.5911H58.6856" stroke="white" stroke-width="2" stroke-linecap="round" stroke-linejoin="round"/>
<path d="M27.1243 62.1736H43.2556" stroke="white" stroke-width="2" stroke-linecap="round" stroke-linejoin="round"/>
</svg>
