<svg width="50" height="50" viewBox="0 0 50 50" fill="none" xmlns="http://www.w3.org/2000/svg">
<path d="M17.6293 1.96185H32.3749C36.694 5.46612 40.9875 7.15133 44.056 7.73302C44.7364 7.86201 45.2541 8.44341 45.2541 9.13599V26.7292C45.2541 36.6947 35.5642 45.4879 25.0021 49.1028C14.44 45.4879 4.75 36.6947 4.75 26.7292V9.13599C4.75 8.44341 5.26771 7.86201 5.94817 7.73302C9.01668 7.15133 13.3102 5.46612 17.6293 1.96185Z" stroke="white" stroke-width="1.51515" stroke-linejoin="round"/>
<path d="M14.774 43.7032C13.466 41.7425 12.7031 39.3847 12.7031 36.8481V26.0758C12.7031 24.9941 13.5771 24.1172 14.6551 24.1172H35.3464C36.4245 24.1172 37.2984 24.9941 37.2984 26.0758V36.8481C37.2984 39.3839 36.5361 41.741 35.2288 43.7013" stroke="white" stroke-width="1.51515" stroke-linejoin="round"/>
<path d="M25.0018 29.6432C23.153 29.6432 21.6543 31.1419 21.6543 32.9907C21.6543 34.1825 22.2771 35.2288 23.215 35.8219V39.791C23.215 40.7778 24.015 41.5778 25.0018 41.5778C25.9886 41.5778 26.7886 40.7778 26.7886 39.791V35.8219C27.7265 35.2287 28.3492 34.1824 28.3492 32.9907C28.3492 31.1419 26.8505 29.6432 25.0018 29.6432Z" stroke="white" stroke-width="1.51515" stroke-linejoin="round"/>
<path d="M34.1243 24.117V18.9426C34.1243 14.0913 30.1916 10.1586 25.3403 10.1586H24.6649C19.8136 10.1586 15.8809 14.0913 15.8809 18.9426V24.117" stroke="white" stroke-width="1.51515" stroke-linejoin="round"/>
<path d="M30.0793 24.1172V19.3836C30.0793 16.5798 27.8063 14.3068 25.0025 14.3068C22.1987 14.3068 19.9258 16.5798 19.9258 19.3836V24.1172" stroke="white" stroke-width="1.51515" stroke-linejoin="round"/>
</svg>
