<svg width="67" height="66" viewBox="0 0 67 66" fill="none" xmlns="http://www.w3.org/2000/svg">
<path d="M32.5359 37.1125C32.5359 36.1843 33.2884 35.4318 34.2166 35.4318H35.2078C36.1361 35.4318 36.8886 36.1843 36.8886 37.1125C36.8886 38.0408 36.1361 38.7933 35.2078 38.7933H34.2166C33.2884 38.7933 32.5359 38.0408 32.5359 37.1125Z" stroke="white" stroke-width="2" stroke-linecap="round" stroke-linejoin="round"/>
<path d="M20.2036 23.8763L20.3916 31.8908C20.46 34.8057 21.8927 37.5089 24.2414 39.1544L27.9125 41.7264C28.9627 42.4622 30.2052 42.8558 31.4774 42.8558H35.6949C36.9671 42.8558 38.2096 42.4622 39.2598 41.7264L42.9309 39.1544C45.2796 37.5089 46.7124 34.8057 46.7807 31.8908L46.9687 23.8763" stroke="white" stroke-width="2" stroke-linecap="round" stroke-linejoin="round"/>
<path d="M28.2791 1.18408H33.6362H39.2457C43.0068 1.18408 50.4869 4.58538 49.7825 12.7127L48.6857 23.8763H46.6489C45.3641 21.4947 44.5871 16.3686 44.2999 14.2012C39.286 17.2408 27.9527 18.4446 22.9127 18.6666C22.6934 20.3274 21.4634 22.8317 20.8759 23.8763H18.839L17.7423 12.7127C17.0379 4.58538 24.5179 1.18408 28.2791 1.18408Z" stroke="white" stroke-width="2" stroke-linecap="round" stroke-linejoin="round"/>
<path d="M18.615 23.5411H18.5073C17.4258 23.5411 16.5491 24.4178 16.5491 25.4993V29.8686C16.5491 31.2205 17.645 32.3164 18.9968 32.3164H20.3881" stroke="white" stroke-width="2" stroke-linecap="round" stroke-linejoin="round"/>
<path d="M48.7145 23.5411H48.8265C49.908 23.5411 50.7847 24.4178 50.7847 25.4993V29.8686C50.7847 31.2205 49.6888 32.3164 48.337 32.3164H46.7625" stroke="white" stroke-width="2" stroke-linecap="round" stroke-linejoin="round"/>
<path d="M36.8755 37.2011C39.5745 37.3543 45.5065 36.6039 47.6428 32.3774" stroke="white" stroke-width="2" stroke-linecap="round" stroke-linejoin="round"/>
<path d="M33.6666 52.5333L33.6666 63.3513H15.4473M21.0767 45.7793L26.544 56.2589L33.6666 51.5684L22.8611 42.257L20.8113 45.1755L21.0767 45.7793ZM21.0767 45.7793L9.54998 48.7348C7.33835 49.3019 5.79175 51.2951 5.79175 53.5783V60.8512C5.79175 62.232 6.91107 63.3513 8.29182 63.3513H15.4473M6.89623 50.4823L13.3129 56.0969C14.6692 57.2837 15.4473 58.9983 15.4473 60.8006V63.3513" stroke="white" stroke-width="2" stroke-linecap="round" stroke-linejoin="round"/>
<path d="M33.6669 63.3513H51.8862M46.2568 45.7792L40.7895 56.2588L33.6669 51.5684L44.4724 42.257L46.5222 45.1755L46.2568 45.7792ZM46.2568 45.7792L57.7835 48.7348C59.9952 49.3019 61.5417 51.295 61.5417 53.5782V60.8512C61.5417 62.2319 60.4224 63.3513 59.0417 63.3513H51.8862M60.4373 50.4823L54.0206 56.0968C52.6643 57.2836 51.8862 58.9982 51.8862 60.8005V63.3513" stroke="white" stroke-width="2" stroke-linecap="round" stroke-linejoin="round"/>
<path d="M24.0044 38.9308V43.2553" stroke="white" stroke-width="2" stroke-linecap="round" stroke-linejoin="round"/>
<path d="M43.3247 38.9307V43.2552" stroke="white" stroke-width="2" stroke-linecap="round" stroke-linejoin="round"/>
</svg>
