<svg width="19" height="17" viewBox="0 0 19 17" fill="none" xmlns="http://www.w3.org/2000/svg">
<path d="M8.58059 1.71993C8.92218 0.898636 10.0856 0.898636 10.4272 1.71993L11.9144 5.29546C12.0584 5.6417 12.384 5.87827 12.7578 5.90823L16.6179 6.2177C17.5045 6.28878 17.8641 7.39529 17.1885 7.97396L14.2475 10.4932C13.9627 10.7372 13.8384 11.1199 13.9254 11.4847L14.8239 15.2515C15.0303 16.1167 14.089 16.8006 13.3299 16.3369L10.0252 14.3184C9.70514 14.1229 9.30267 14.1229 8.98265 14.3184L5.67788 16.3369C4.91878 16.8006 3.97753 16.1167 4.18391 15.2515L5.08243 11.4847C5.16944 11.1199 5.04507 10.7372 4.76028 10.4932L1.8193 7.97396C1.14376 7.39529 1.50329 6.28878 2.38994 6.2177L6.25003 5.90823C6.62382 5.87827 6.94943 5.6417 7.09344 5.29546L8.58059 1.71993Z" stroke="#333333" stroke-linejoin="round"/>
</svg>
