<svg width="80" height="102" viewBox="0 0 80 102" fill="none" xmlns="http://www.w3.org/2000/svg">
<path d="M38.8071 37.0791C52.2108 37.0791 62.0825 39.7508 68.4222 45.0942C74.8523 50.4376 78.0674 57.5923 78.0674 66.5584C78.0674 72.3546 76.6184 77.6527 73.7203 82.4527C70.8222 87.1622 66.3844 90.9659 60.4071 93.864C54.5203 96.6716 47.2297 98.0754 38.5354 98.0754C31.8335 98.0754 25.2222 97.215 18.7014 95.4942C12.2712 93.6829 6.79197 91.1471 2.26367 87.8867L10.958 71.0414C14.5807 73.7584 18.7467 75.8867 23.4561 77.4263C28.1656 78.8754 33.0108 79.5999 37.992 79.5999C43.5165 79.5999 47.8637 78.5131 51.0335 76.3395C54.2033 74.1659 55.7882 71.132 55.7882 67.2376C55.7882 63.1622 54.1127 60.0829 50.7618 57.9999C47.5014 55.9169 41.7957 54.8754 33.6448 54.8754H9.32782L14.2184 1.35083H72.2259V19.0112H32.558L31.0637 37.0791H38.8071Z" fill="#00A0E3"/>
</svg>
