<svg width="80" height="102" viewBox="0 0 80 102" fill="none" xmlns="http://www.w3.org/2000/svg">
<path d="M45.8945 36.576C51.8449 36.576 57.2624 37.7818 62.1471 40.1934C67.0317 42.605 70.895 46.0437 73.737 50.5097C76.579 54.8863 78 59.9774 78 65.7831C78 72.0354 76.4458 77.5285 73.3374 82.2624C70.229 86.9963 65.966 90.6584 60.5484 93.2486C55.2197 95.7495 49.2693 97 42.6972 97C29.6419 97 19.4285 92.9807 12.0571 84.942C4.6857 76.9033 1 65.4259 1 50.5097C1 39.8808 2.99827 30.7703 6.99481 23.1782C10.9914 15.5861 16.5421 9.82504 23.6471 5.89502C30.8408 1.96501 39.1447 0 48.5588 0C53.5323 0 58.2837 0.580569 62.8131 1.74171C67.4314 2.81353 71.3391 4.37661 74.5363 6.43094L66.5433 22.3743C61.925 19.2482 56.1078 17.6851 49.0917 17.6851C41.1874 17.6851 34.9262 20.0074 30.308 24.6519C25.6897 29.2965 23.203 36.0401 22.8478 44.8826C28.3541 39.3448 36.0363 36.576 45.8945 36.576ZM41.4983 80.7887C46.1165 80.7887 49.8466 79.5382 52.6886 77.0373C55.6194 74.5364 57.0848 71.1423 57.0848 66.855C57.0848 62.5677 55.6194 59.1736 52.6886 56.6726C49.8466 54.0824 46.0277 52.7873 41.2318 52.7873C36.5248 52.7873 32.6615 54.1271 29.6419 56.8066C26.6223 59.3969 25.1125 62.7463 25.1125 66.855C25.1125 70.9636 26.5779 74.3131 29.5087 76.9033C32.4394 79.4936 36.436 80.7887 41.4983 80.7887Z" fill="#00A0E3"/>
</svg>
