<svg width="80" height="102" viewBox="0 0 80 102" fill="none" xmlns="http://www.w3.org/2000/svg">
<path d="M76 79.0169V97H4.33512V82.6952L40.9127 47.9551C44.7962 44.2313 47.4153 41.0524 48.7701 38.4185C50.1248 35.6938 50.8021 33.0145 50.8021 30.3806C50.8021 26.566 49.4926 23.6596 46.8734 21.6615C44.3446 19.5726 40.5966 18.5281 35.6292 18.5281C31.4747 18.5281 27.7267 19.3455 24.385 20.9803C21.0434 22.5243 18.2436 24.8858 15.9857 28.0646L0 17.7107C3.70291 12.1704 8.80571 7.85627 15.3084 4.76825C21.8111 1.58942 29.262 0 37.6613 0C44.7059 0 50.8473 1.18071 56.0856 3.54213C61.4141 5.81273 65.5235 9.0824 68.4136 13.3511C71.3939 17.529 72.8841 22.4789 72.8841 28.2008C72.8841 33.3778 71.8004 38.2369 69.6328 42.7781C67.4652 47.3193 63.2656 52.4963 57.0339 58.309L35.2228 79.0169H76Z" fill="#00A0E3"/>
</svg>
