<svg width="106" height="135" viewBox="0 0 106 135" fill="none" xmlns="http://www.w3.org/2000/svg">
<path d="M51.42 49.1801C69.18 49.1801 82.26 52.7201 90.66 59.8001C99.18 66.8801 103.44 76.3601 103.44 88.2401C103.44 95.9201 101.52 102.94 97.68 109.3C93.84 115.54 87.96 120.58 80.04 124.42C72.24 128.14 62.58 130 51.06 130C42.18 130 33.42 128.86 24.78 126.58C16.26 124.18 9 120.82 3 116.5L14.52 94.1801C19.32 97.7801 24.84 100.6 31.08 102.64C37.32 104.56 43.74 105.52 50.34 105.52C57.66 105.52 63.42 104.08 67.62 101.2C71.82 98.3201 73.92 94.3001 73.92 89.1401C73.92 83.7401 71.7 79.6601 67.26 76.9001C62.94 74.1401 55.38 72.7601 44.58 72.7601H12.36L18.84 1.84009H95.7V25.2401H43.14L41.16 49.1801H51.42Z" fill="#00A0E3"/>
</svg>
